<?xml version="1.0" encoding="UTF-8"?>
<svg version="1.1" xmlns="http://www.w3.org/2000/svg" width="512" height="512">
<path d="M0 0 C20.48074783 16.34047565 34.53419662 39.34110886 37.82421875 65.5703125 C38.05076477 70.80182064 38.01561248 76.02335621 37.94921875 81.2578125 C37.93915934 82.6529883 37.93003877 84.0481712 37.921875 85.44335938 C37.89851281 88.8191962 37.86575543 92.19465868 37.82421875 95.5703125 C38.64361435 95.55698883 39.46300995 95.54366516 40.30723572 95.52993774 C48.0597634 95.40931266 55.81183098 95.31816315 63.56505489 95.25943947 C67.55037163 95.22823274 71.5349078 95.18595967 75.51977539 95.11767578 C79.37130372 95.05209586 83.2220852 95.01652644 87.0741291 95.00104904 C88.53771269 94.99003117 90.00125909 94.9685159 91.46452141 94.93593216 C99.19896164 94.77067872 105.53844021 94.90170495 112.01100159 99.59481812 C118.47800781 106.64060101 118.98509455 114.47123504 120.06518555 123.58642578 C120.26851125 125.20180957 120.47344172 126.81699199 120.67978191 128.43199348 C121.14527107 132.09055224 121.60231221 135.75005227 122.05468369 139.41025543 C122.8795913 146.05340769 123.74501669 152.69106355 124.61416626 159.32855225 C125.99290287 169.86736238 127.36492262 180.40699439 128.727005 190.94796753 C128.86273289 191.9982812 128.86273289 191.9982812 129.00120275 193.06981333 C131.65073151 213.57647878 134.29031402 234.0844304 136.92517567 254.59298515 C137.33508376 257.78318705 137.74503579 260.9733833 138.1550293 264.16357422 C138.25687331 264.95604597 138.35871732 265.74851772 138.46364751 266.56500377 C140.11974203 279.44896861 141.78684532 292.33148583 143.45808557 305.21349381 C145.18671807 318.53962466 146.90421925 331.86715583 148.611417 345.19604981 C149.65818471 353.36607496 150.71317234 361.53494547 151.77932664 369.70246376 C152.50885541 375.29780128 153.22738979 380.89448605 153.93772743 386.49229191 C154.34564308 389.70443544 154.7595352 392.91559215 155.18337059 396.12567902 C160.9409323 439.80712455 160.9409323 439.80712455 153.82421875 455.5703125 C153.40011719 456.51777344 152.97601563 457.46523438 152.5390625 458.44140625 C145.01925287 473.54386514 132.39066332 483.63411227 116.82421875 489.5703125 C109.53127313 491.88906916 102.57826365 491.85589442 94.96601868 491.83773804 C93.55769504 491.84147834 92.14937349 491.84608137 90.74105519 491.85146868 C86.88486573 491.86366731 83.02876324 491.86344193 79.1725589 491.86107993 C75.0081176 491.86067097 70.84370388 491.87171856 66.67927551 491.88119507 C58.52517382 491.89778916 50.37110106 491.90330391 42.21698389 491.90441982 C35.58637017 491.90537112 28.95576597 491.90948547 22.32515526 491.91582108 C3.51283452 491.93342967 -15.29946343 491.94266062 -34.11179247 491.94116013 C-35.63221325 491.94104026 -35.63221325 491.94104026 -37.18334961 491.94091797 C-38.19820581 491.94083621 -39.21306202 491.94075445 -40.25867144 491.94067021 C-56.70026319 491.93985757 -73.14176327 491.9589907 -89.58332851 491.9871947 C-106.47846648 492.0159473 -123.37355978 492.02973367 -140.26872283 492.02800715 C-149.74879027 492.02734404 -159.22876163 492.03280172 -168.70880699 492.05436325 C-176.78139314 492.07260639 -184.85383965 492.07689676 -192.92643752 492.0633444 C-197.04151787 492.05683034 -201.15633058 492.05664067 -205.27138519 492.0740509 C-209.04615531 492.08985649 -212.82044725 492.08684259 -216.59520624 492.06948264 C-218.59142388 492.06499398 -220.5876568 492.08001113 -222.58381575 492.09596193 C-238.9592718 491.97172014 -253.03815478 486.18496995 -264.89453125 474.91015625 C-276.41621305 463.09254085 -282.58468328 448.98747368 -282.52156067 432.48019409 C-282.51809625 431.48697769 -282.51463184 430.49376129 -282.51106244 429.47044742 C-282.31086395 416.6077468 -280.5881346 403.90023453 -278.92258179 391.16257977 C-278.43959292 387.44359285 -277.97356942 383.72247078 -277.50521851 380.00161743 C-276.58975598 372.74973099 -275.65909409 365.49987707 -274.72286781 358.25064518 C-273.63102947 349.79233588 -272.55418061 341.33213751 -271.47768865 332.87186383 C-269.55646039 317.77712092 -267.62111955 302.6842214 -265.67797852 287.59228516 C-263.79540184 272.97068921 -261.92409983 258.34770572 -260.06469727 243.72314453 C-258.03378365 227.74976167 -255.9972166 211.77712043 -253.95033199 195.80577552 C-253.73205838 194.10262227 -253.5137848 192.39946902 -253.29551125 190.69631577 C-253.18813308 189.85854915 -253.08075492 189.02078253 -252.97012287 188.15762905 C-252.21562341 182.26841056 -251.46494658 176.37871207 -250.71561241 170.48883438 C-249.80294556 163.31662743 -248.88352922 156.14532234 -247.95566352 148.97506525 C-247.48292359 145.32076931 -247.01302741 141.66617015 -246.55103874 138.01049805 C-246.04964728 134.0439352 -245.53408822 130.07934143 -245.01713562 126.11477661 C-244.87412716 124.96605076 -244.7311187 123.81732491 -244.58377665 122.63378918 C-243.25513271 112.61310094 -241.76857013 103.97530198 -233.49389648 97.45800781 C-227.55378789 94.17038849 -220.42472211 95.08259603 -213.8359375 95.1796875 C-212.34379335 95.18715734 -210.85163932 95.19284676 -209.35948181 95.19683838 C-205.45153228 95.21203653 -201.54418705 95.25126665 -197.63647461 95.2956543 C-193.64119641 95.33673371 -189.6458196 95.35487629 -185.65039062 95.375 C-177.82524675 95.41776784 -170.000599 95.48594686 -162.17578125 95.5703125 C-162.18396378 94.713237 -162.1921463 93.8561615 -162.20057678 92.97311401 C-162.22744595 89.74720889 -162.24691311 86.52136144 -162.26161194 83.29537964 C-162.26939657 81.90778712 -162.2800031 80.5202071 -162.2936554 79.13265991 C-162.56115811 51.2154471 -152.53495063 27.79836291 -133.17578125 7.5703125 C-97.53271173 -27.92275381 -39.5116431 -30.22907996 0 0 Z M-105.36328125 38.2578125 C-121.29582274 55.00824626 -122.17578125 73.49819424 -122.17578125 95.5703125 C-82.57578125 95.5703125 -42.97578125 95.5703125 -2.17578125 95.5703125 C-2.17578125 71.30493828 -4.28415635 54.36101967 -20.86328125 36.3828125 C-45.82094215 12.64378739 -81.07206524 15.8569635 -105.36328125 38.2578125 Z M-204.17578125 135.5703125 C-207.08655058 156.52785166 -209.99136258 177.47512311 -212.6809082 198.46020508 C-212.99678253 200.91406908 -213.31279159 203.36791574 -213.62892151 205.82174683 C-214.55622238 213.02493374 -215.48035995 220.22852441 -216.40354827 227.43223932 C-216.66542779 229.47549614 -216.92740951 231.51873982 -217.18942618 233.56197906 C-218.82939151 246.35068455 -220.46821685 259.13953553 -222.10328388 271.92886829 C-222.47712673 274.85288986 -222.85098048 277.77691003 -223.22485352 280.70092773 C-223.31772568 281.42727933 -223.41059785 282.15363093 -223.50628432 282.90199318 C-225.01933549 294.73382341 -226.54023367 306.56463164 -228.06423185 318.39505628 C-229.63991476 330.62775184 -231.20844279 342.86134849 -232.77007836 355.0958454 C-233.64275832 361.93136075 -234.51848427 368.76645407 -235.40233803 375.60053444 C-236.23097069 382.00776855 -237.0498942 388.4161974 -237.86240196 394.82549667 C-238.16065426 397.16592038 -238.46208952 399.50594118 -238.76705933 401.84549904 C-243.07334587 423.6824128 -243.07334587 423.6824128 -237.796875 443.98828125 C-231.47045423 450.16225814 -225.18452173 451.69258304 -216.46228218 451.69894695 C-215.3405829 451.7021714 -214.21888361 451.70539585 -213.06319344 451.708718 C-211.22993927 451.7063951 -211.22993927 451.7063951 -209.35964966 451.70402527 C-208.05343088 451.70629083 -206.7472121 451.70855638 -205.40141094 451.71089059 C-201.78190197 451.7170011 -198.16241613 451.71687588 -194.54290318 451.71569622 C-190.63688505 451.71549202 -186.7308743 451.72101272 -182.82485962 451.72575378 C-175.17482404 451.73405659 -167.52479617 451.73680845 -159.87475647 451.73736616 C-153.65643113 451.73784146 -147.43810832 451.73989689 -141.21978378 451.74306679 C-123.5877476 451.75187204 -105.9557175 451.75648632 -88.3236791 451.75573631 C-86.89816254 451.75567638 -86.89816254 451.75567638 -85.44384766 451.75561523 C-84.0165898 451.75555391 -84.0165898 451.75555391 -82.56049846 451.75549135 C-67.13714182 451.75508483 -51.71380959 451.76465631 -36.29046001 451.7787536 C-20.45197588 451.79311607 -4.61350366 451.80002387 11.22498715 451.79915982 C20.1163601 451.79882783 29.00770747 451.80157607 37.89907455 451.81233788 C45.4686011 451.82144112 53.03809045 451.82361953 60.60762011 451.81682845 C64.468837 451.81356248 68.32998251 451.81350937 72.19119263 451.8221817 C76.37888912 451.83149053 80.56642019 451.82527276 84.75411987 451.81755066 C86.58068188 451.825266 86.58068188 451.825266 88.44414413 451.83313721 C97.16181944 451.79756149 104.87480423 451.43870699 111.82421875 445.5703125 C116.53975448 440.75524039 117.19454873 436.12449054 117.14922374 429.56280673 C116.89516986 418.6742451 115.20261318 407.84579225 113.79533017 397.06150031 C113.34874719 393.62284158 112.91321192 390.18278046 112.47624207 386.7428894 C111.62135181 380.0265502 110.75656283 373.3115221 109.88841254 366.59688549 C108.87699953 358.7707809 107.87605406 350.94334806 106.87561446 343.11583443 C105.09069355 329.15291272 103.29712604 315.1911159 101.49829102 301.22998047 C99.75368876 287.68964679 98.01407165 274.14868633 96.28051758 260.60693359 C96.17355114 259.77136871 96.0665847 258.93580382 95.95637686 258.07491879 C95.5263986 254.71605485 95.09643572 251.35718894 94.66649789 247.99831983 C92.81271017 233.51663064 90.95496524 219.03544871 89.09657916 204.55434901 C88.79601033 202.2120116 88.49552647 199.8696633 88.19506001 197.52731276 C87.14383622 189.33304006 86.09138461 181.13892773 85.03560764 172.9452403 C84.59920435 169.55837909 84.16332065 166.17145344 83.72893906 162.78433228 C83.25800835 159.11482523 82.78489305 155.44560651 82.31117249 151.77645874 C82.17401119 150.70400732 82.03684989 149.63155591 81.89553219 148.52660596 C81.7681389 147.54358365 81.64074561 146.56056134 81.50949192 145.54775047 C81.40051219 144.7011311 81.29153245 143.85451173 81.1792503 142.98223722 C80.81348955 140.49742312 80.31678199 138.03312868 79.82421875 135.5703125 C-13.89578125 135.5703125 -107.61578125 135.5703125 -204.17578125 135.5703125 Z " fill="#000000" transform="translate(318.17578125,20.4296875)"/>
<path d="M0 0 C4.88329442 3.01567685 8.01976567 6.53834419 10.234375 11.89453125 C10.82713089 14.71869748 11.00521763 17.5175811 11.171875 20.39453125 C12.7133271 38.12761511 19.45653801 53.19887541 33.234375 64.89453125 C46.27293632 75.03109303 61.84964694 79.12514879 78.171875 77.26953125 C94.24726066 74.57849753 108.33528249 66.61113447 118.07421875 53.3984375 C125.27842254 42.66067075 127.77997158 32.70602513 128.84472656 19.94995117 C129.71671526 11.62393706 132.84880393 5.7863732 139.234375 0.33203125 C144.79977339 -2.32699242 151.2779747 -1.98814798 157.234375 -1.10546875 C162.90561787 1.16142635 166.52453144 4.43556433 169.44482422 9.84887695 C170.94121706 13.72589476 170.82194326 17.59966309 170.734375 21.70703125 C170.72156494 22.62701904 170.70875488 23.54700684 170.69555664 24.49487305 C169.91777542 51.31563124 157.52114802 75.48348171 138.19921875 93.84765625 C126.66724707 104.31288896 113.14720972 111.49317378 98.234375 115.89453125 C97.244375 116.21292969 96.254375 116.53132813 95.234375 116.859375 C69.60691594 123.81082327 42.16180363 118.71898528 19.25 106.2734375 C-3.27170523 92.70183189 -19.37824756 72.12749498 -26.765625 46.89453125 C-27.08402344 45.82332031 -27.40242187 44.75210938 -27.73046875 43.6484375 C-30.46893259 32.93435548 -32.3228509 19.33043636 -28.6640625 8.69140625 C-22.44163417 -1.35764913 -10.98659923 -4.39153613 0 0 Z " fill="#000000" transform="translate(185.765625,197.10546875)"/>
</svg>
